<?xml version="1.0" encoding="UTF-8"?><svg xmlns="http://www.w3.org/2000/svg" xmlns:xlink="http://www.w3.org/1999/xlink" width="375" zoomAndPan="magnify" viewBox="0 0 375 374.999991" height="374.999991" preserveAspectRatio="xMidYMid meet" version="1.0"><defs><clipPath id="clip-0"><path d="M 18.75 0 L 356.25 0 L 356.25 375 L 18.75 375 Z M 18.75 0 " clip-rule="nonzero"/></clipPath></defs><g clip-path="url(#clip-0)"><path fill="rgb(0.779724%, 46.669006%, 74.119568%)" d="M 356.195312 -1.046875 L 18.804688 -1.046875 L 48.574219 336.492188 L 187.5 376.203125 L 326.425781 336.492188 Z M 356.195312 -1.046875 " fill-opacity="1" fill-rule="nonzero"/></g><path fill="rgb(1.179504%, 60.778809%, 89.7995%)" d="M 187.5 28.734375 L 187.5 345.425781 L 298.640625 313.660156 L 323.449219 28.734375 Z M 187.5 28.734375 " fill-opacity="1" fill-rule="nonzero"/><path fill="rgb(100%, 100%, 100%)" d="M 277.800781 78.375 L 187.5 78.375 L 187.5 118.085938 L 236.125 118.085938 L 233.148438 157.792969 L 187.5 157.792969 L 187.5 197.503906 L 231.164062 197.503906 L 228.1875 242.179688 L 187.5 256.078125 L 187.5 297.773438 L 265.894531 271.960938 L 272.839844 157.792969 Z M 277.800781 78.375 " fill-opacity="1" fill-rule="nonzero"/><path fill="rgb(93.328857%, 93.328857%, 93.328857%)" d="M 187.5 78.375 L 187.5 118.085938 L 99.183594 118.085938 L 96.207031 78.375 Z M 141.851562 157.792969 L 143.835938 197.503906 L 187.5 197.503906 L 187.5 157.792969 Z M 145.820312 217.359375 L 106.128906 217.359375 L 109.105469 271.960938 L 187.5 297.773438 L 187.5 256.078125 L 146.8125 242.179688 Z M 145.820312 217.359375 " fill-opacity="1" fill-rule="nonzero"/></svg>