<?xml version="1.0" encoding="UTF-8"?><svg xmlns="http://www.w3.org/2000/svg" xmlns:xlink="http://www.w3.org/1999/xlink" width="375" zoomAndPan="magnify" viewBox="0 0 375 374.999991" height="374.999991" preserveAspectRatio="xMidYMid meet" version="1.0"><path fill="rgb(22.349548%, 75.689697%, 84.309387%)" d="M 221.152344 187.5 C 221.152344 188.601562 221.101562 189.703125 220.992188 190.796875 C 220.882812 191.894531 220.722656 192.984375 220.507812 194.066406 C 220.292969 195.148438 220.023438 196.214844 219.703125 197.269531 C 219.382812 198.324219 219.015625 199.359375 218.59375 200.378906 C 218.171875 201.398438 217.699219 202.390625 217.179688 203.363281 C 216.660156 204.335938 216.09375 205.28125 215.480469 206.195312 C 214.871094 207.113281 214.214844 207.996094 213.515625 208.851562 C 212.816406 209.703125 212.078125 210.515625 211.296875 211.296875 C 210.515625 212.078125 209.703125 212.816406 208.851562 213.515625 C 207.996094 214.214844 207.113281 214.871094 206.195312 215.480469 C 205.28125 216.09375 204.335938 216.660156 203.363281 217.179688 C 202.390625 217.699219 201.398438 218.171875 200.378906 218.59375 C 199.359375 219.015625 198.324219 219.382812 197.269531 219.703125 C 196.214844 220.023438 195.148438 220.292969 194.066406 220.507812 C 192.984375 220.722656 191.894531 220.882812 190.796875 220.992188 C 189.703125 221.101562 188.601562 221.152344 187.5 221.152344 C 186.398438 221.152344 185.296875 221.101562 184.203125 220.992188 C 183.105469 220.882812 182.015625 220.722656 180.933594 220.507812 C 179.851562 220.292969 178.785156 220.023438 177.730469 219.703125 C 176.675781 219.382812 175.640625 219.015625 174.621094 218.59375 C 173.601562 218.171875 172.609375 217.699219 171.636719 217.179688 C 170.664062 216.660156 169.71875 216.09375 168.804688 215.480469 C 167.886719 214.871094 167.003906 214.214844 166.148438 213.515625 C 165.296875 212.816406 164.484375 212.078125 163.703125 211.296875 C 162.921875 210.515625 162.183594 209.703125 161.484375 208.851562 C 160.785156 207.996094 160.128906 207.113281 159.519531 206.195312 C 158.90625 205.28125 158.339844 204.335938 157.820312 203.363281 C 157.300781 202.390625 156.828125 201.398438 156.40625 200.378906 C 155.984375 199.359375 155.613281 198.324219 155.296875 197.269531 C 154.976562 196.214844 154.707031 195.148438 154.492188 194.066406 C 154.277344 192.984375 154.117188 191.894531 154.007812 190.796875 C 153.898438 189.703125 153.847656 188.601562 153.847656 187.5 C 153.847656 186.398438 153.898438 185.296875 154.007812 184.203125 C 154.117188 183.105469 154.277344 182.015625 154.492188 180.933594 C 154.707031 179.851562 154.976562 178.785156 155.296875 177.730469 C 155.613281 176.675781 155.984375 175.640625 156.40625 174.621094 C 156.828125 173.601562 157.300781 172.609375 157.820312 171.636719 C 158.339844 170.664062 158.90625 169.71875 159.519531 168.804688 C 160.128906 167.886719 160.785156 167.003906 161.484375 166.148438 C 162.183594 165.296875 162.921875 164.484375 163.703125 163.703125 C 164.484375 162.921875 165.296875 162.183594 166.148438 161.484375 C 167.003906 160.785156 167.886719 160.128906 168.804688 159.519531 C 169.71875 158.90625 170.664062 158.339844 171.636719 157.820312 C 172.609375 157.300781 173.601562 156.828125 174.621094 156.40625 C 175.640625 155.984375 176.675781 155.613281 177.730469 155.296875 C 178.785156 154.976562 179.851562 154.707031 180.933594 154.492188 C 182.015625 154.277344 183.105469 154.117188 184.203125 154.007812 C 185.296875 153.898438 186.398438 153.847656 187.5 153.847656 C 188.601562 153.847656 189.703125 153.898438 190.796875 154.007812 C 191.894531 154.117188 192.984375 154.277344 194.066406 154.492188 C 195.148438 154.707031 196.214844 154.976562 197.269531 155.296875 C 198.324219 155.613281 199.359375 155.984375 200.378906 156.40625 C 201.398438 156.828125 202.390625 157.300781 203.363281 157.820312 C 204.335938 158.339844 205.28125 158.90625 206.195312 159.519531 C 207.113281 160.128906 207.996094 160.785156 208.851562 161.484375 C 209.703125 162.183594 210.515625 162.921875 211.296875 163.703125 C 212.078125 164.484375 212.816406 165.296875 213.515625 166.148438 C 214.214844 167.003906 214.871094 167.886719 215.480469 168.804688 C 216.09375 169.71875 216.660156 170.664062 217.179688 171.636719 C 217.699219 172.609375 218.171875 173.601562 218.59375 174.621094 C 219.015625 175.640625 219.382812 176.675781 219.703125 177.730469 C 220.023438 178.785156 220.292969 179.851562 220.507812 180.933594 C 220.722656 182.015625 220.882812 183.105469 220.992188 184.203125 C 221.101562 185.296875 221.152344 186.398438 221.152344 187.5 Z M 221.152344 187.5 " fill-opacity="1" fill-rule="nonzero"/><path fill="rgb(12.159729%, 12.939453%, 16.859436%)" d="M 187.5 225.960938 C 166.292969 225.960938 149.039062 208.707031 149.039062 187.5 C 149.039062 166.292969 166.292969 149.039062 187.5 149.039062 C 208.707031 149.039062 225.960938 166.292969 225.960938 187.5 C 225.960938 208.707031 208.707031 225.960938 187.5 225.960938 Z M 187.5 158.652344 C 171.589844 158.652344 158.652344 171.589844 158.652344 187.5 C 158.652344 203.410156 171.589844 216.347656 187.5 216.347656 C 203.410156 216.347656 216.347656 203.410156 216.347656 187.5 C 216.347656 171.589844 203.410156 158.652344 187.5 158.652344 Z M 187.5 158.652344 " fill-opacity="1" fill-rule="nonzero"/><path fill="rgb(22.349548%, 75.689697%, 84.309387%)" d="M 372.597656 187.5 C 372.597656 161.652344 341.472656 139.285156 293.183594 125.972656 C 305.597656 77.433594 301.773438 39.265625 279.589844 26.3125 C 270.839844 21.203125 260.226562 20.269531 248.042969 23.527344 C 229.6875 28.441406 208.652344 42.808594 187.5 63.910156 C 166.347656 42.808594 145.3125 28.445312 126.957031 23.527344 C 114.773438 20.265625 104.160156 21.203125 95.410156 26.3125 C 73.226562 39.265625 69.402344 77.429688 81.816406 125.972656 C 33.527344 139.285156 2.402344 161.652344 2.402344 187.5 C 2.402344 213.347656 33.527344 235.714844 81.816406 249.035156 C 69.402344 297.570312 73.226562 335.742188 95.410156 348.691406 C 100.753906 351.8125 106.792969 353.382812 113.464844 353.378906 C 117.710938 353.378906 122.214844 352.746094 126.957031 351.476562 C 145.3125 346.558594 166.347656 332.195312 187.5 311.097656 C 208.652344 332.195312 229.6875 346.558594 248.042969 351.476562 C 252.785156 352.746094 257.289062 353.378906 261.535156 353.378906 C 268.207031 353.378906 274.246094 351.816406 279.589844 348.691406 C 301.773438 335.742188 305.589844 297.570312 293.183594 249.035156 C 341.472656 235.714844 372.597656 213.347656 372.597656 187.5 Z M 251.773438 37.457031 C 255.257812 36.527344 258.492188 36.058594 261.464844 36.058594 C 265.601562 36.058594 269.234375 36.960938 272.316406 38.765625 C 287.183594 47.445312 290.214844 79.246094 279.144531 122.472656 C 263.890625 119.039062 247.246094 116.457031 229.558594 114.859375 C 219.179688 99.894531 208.378906 86.269531 197.5 74.335938 C 216.816406 54.976562 235.769531 41.746094 251.773438 37.457031 Z M 239.207031 217.785156 C 233.539062 227.714844 227.570312 237.230469 221.453125 246.335938 C 210.585938 247.148438 199.257812 247.597656 187.5 247.597656 C 175.742188 247.597656 164.414062 247.148438 153.554688 246.335938 C 147.433594 237.230469 141.464844 227.714844 135.796875 217.785156 C 129.9375 207.515625 124.679688 197.398438 119.964844 187.503906 C 124.679688 177.609375 129.9375 167.496094 135.796875 157.222656 C 141.472656 147.285156 147.433594 137.769531 153.558594 128.664062 C 164.417969 127.851562 175.742188 127.402344 187.5 127.402344 C 199.257812 127.402344 210.582031 127.851562 221.445312 128.664062 C 227.566406 137.769531 233.535156 147.289062 239.207031 157.222656 C 245.066406 167.492188 250.328125 177.605469 255.039062 187.503906 C 250.328125 197.398438 245.066406 207.515625 239.207031 217.785156 Z M 262.710938 204.542969 C 267.714844 216.375 271.851562 227.765625 275.195312 238.589844 C 264.257812 241.027344 252.453125 243.0625 239.839844 244.566406 C 243.890625 238.191406 247.878906 231.671875 251.730469 224.929688 C 255.628906 218.105469 259.269531 211.304688 262.710938 204.542969 Z M 187.5 290.179688 C 179.632812 281.480469 171.785156 271.851562 164.117188 261.433594 C 171.769531 261.804688 179.558594 262.019531 187.5 262.019531 C 195.441406 262.019531 203.230469 261.804688 210.882812 261.433594 C 203.214844 271.847656 195.367188 281.476562 187.5 290.179688 Z M 135.152344 244.566406 C 122.546875 243.0625 110.734375 241.027344 99.796875 238.589844 C 103.144531 227.765625 107.277344 216.371094 112.285156 204.542969 C 115.726562 211.304688 119.371094 218.105469 123.265625 224.929688 C 127.121094 231.679688 131.105469 238.195312 135.152344 244.566406 Z M 112.289062 170.460938 C 107.285156 158.628906 103.144531 147.234375 99.804688 136.402344 C 110.742188 133.964844 122.554688 131.933594 135.164062 130.429688 C 131.109375 136.804688 127.125 143.328125 123.273438 150.070312 C 119.371094 156.898438 115.730469 163.703125 112.289062 170.460938 Z M 187.5 84.828125 C 195.367188 93.523438 203.214844 103.152344 210.882812 113.570312 C 203.230469 113.195312 195.441406 112.980469 187.5 112.980469 C 179.558594 112.980469 171.769531 113.195312 164.117188 113.566406 C 171.785156 103.152344 179.632812 93.523438 187.5 84.828125 Z M 251.730469 150.078125 C 247.878906 143.328125 243.890625 136.808594 239.839844 130.433594 C 252.453125 131.9375 264.257812 133.972656 275.203125 136.410156 C 271.855469 147.242188 267.722656 158.628906 262.714844 170.464844 C 259.269531 163.703125 255.628906 156.898438 251.730469 150.078125 Z M 102.683594 38.765625 C 105.769531 36.960938 109.394531 36.058594 113.535156 36.058594 C 116.503906 36.058594 119.746094 36.527344 123.226562 37.457031 C 139.230469 41.746094 158.183594 54.972656 177.5 74.332031 C 166.621094 86.265625 155.820312 99.894531 145.441406 114.855469 C 127.753906 116.453125 111.105469 119.035156 95.855469 122.464844 C 84.785156 79.242188 87.816406 47.441406 102.683594 38.765625 Z M 16.828125 187.5 C 16.828125 170.210938 42.792969 151.730469 85.746094 139.898438 C 90.402344 155.085938 96.519531 171.082031 104.042969 187.5 C 96.519531 203.917969 90.402344 219.914062 85.746094 235.101562 C 42.792969 223.269531 16.828125 204.789062 16.828125 187.5 Z M 123.226562 337.542969 C 114.894531 339.765625 107.984375 339.328125 102.683594 336.242188 C 87.816406 327.558594 84.789062 295.757812 95.855469 252.535156 C 111.105469 255.964844 127.753906 258.546875 145.4375 260.144531 C 155.816406 275.109375 166.617188 288.734375 177.496094 300.671875 C 158.183594 320.027344 139.230469 333.253906 123.226562 337.542969 Z M 272.316406 336.242188 C 267.015625 339.335938 260.109375 339.769531 251.773438 337.542969 C 235.769531 333.253906 216.816406 320.027344 197.5 300.667969 C 208.378906 288.734375 219.179688 275.105469 229.558594 260.140625 C 247.246094 258.542969 263.890625 255.960938 279.140625 252.527344 C 290.214844 295.757812 287.183594 327.558594 272.316406 336.242188 Z M 289.253906 235.101562 C 284.597656 219.914062 278.480469 203.917969 270.957031 187.5 C 278.480469 171.082031 284.597656 155.082031 289.253906 139.898438 C 332.207031 151.730469 358.171875 170.210938 358.171875 187.5 C 358.171875 204.789062 332.207031 223.269531 289.253906 235.101562 Z M 289.253906 235.101562 " fill-opacity="1" fill-rule="nonzero"/><path fill="rgb(12.159729%, 12.939453%, 16.859436%)" d="M 113.4375 355.777344 C 106.367188 355.777344 99.894531 354.089844 94.203125 350.765625 C 71.933594 337.757812 66.398438 301.359375 78.921875 250.710938 C 28.726562 236.4375 0 213.460938 0 187.5 C 0 161.539062 28.726562 138.5625 78.917969 124.289062 C 66.398438 73.640625 71.933594 37.242188 94.203125 24.234375 C 103.519531 18.785156 114.746094 17.765625 127.582031 21.207031 C 145.457031 25.996094 166.140625 39.570312 187.5 60.527344 C 208.867188 39.570312 229.546875 25.996094 247.417969 21.207031 C 260.25 17.773438 271.480469 18.792969 280.804688 24.234375 C 303.066406 37.242188 308.601562 73.640625 296.082031 124.289062 C 346.273438 138.5625 375 161.539062 375 187.5 C 375 213.460938 346.273438 236.4375 296.082031 250.710938 C 308.601562 301.359375 303.070312 337.753906 280.804688 350.765625 C 271.539062 356.171875 260.195312 357.214844 247.421875 353.792969 C 229.542969 349.003906 208.859375 335.429688 187.5 314.476562 C 166.140625 335.429688 145.457031 349.007812 127.582031 353.792969 C 122.664062 355.109375 117.914062 355.777344 113.464844 355.777344 C 113.457031 355.777344 113.445312 355.777344 113.4375 355.777344 Z M 113.480469 24.035156 C 107.226562 24.035156 101.585938 25.484375 96.621094 28.390625 C 76.3125 40.25 71.648438 76.503906 84.144531 125.375 C 84.464844 126.644531 83.714844 127.941406 82.453125 128.289062 C 33.835938 141.691406 4.808594 163.832031 4.808594 187.5 C 4.808594 211.167969 33.835938 233.308594 82.457031 246.710938 C 83.722656 247.058594 84.472656 248.355469 84.148438 249.625 C 71.648438 298.496094 76.3125 334.753906 96.621094 346.609375 C 101.570312 349.5 107.230469 350.964844 113.4375 350.964844 C 113.445312 350.964844 113.457031 350.964844 113.464844 350.964844 C 117.496094 350.964844 121.820312 350.355469 126.335938 349.148438 C 143.871094 344.453125 164.4375 330.707031 185.804688 309.390625 C 186.742188 308.457031 188.257812 308.457031 189.195312 309.390625 C 210.5625 330.703125 231.128906 344.445312 248.664062 349.148438 C 260.171875 352.222656 270.226562 351.367188 278.378906 346.609375 C 298.6875 334.75 303.351562 298.496094 290.851562 249.625 C 290.527344 248.355469 291.277344 247.058594 292.542969 246.710938 C 341.164062 233.308594 370.191406 211.167969 370.191406 187.5 C 370.191406 163.832031 341.164062 141.691406 292.542969 128.289062 C 291.277344 127.941406 290.527344 126.644531 290.851562 125.375 C 303.347656 76.503906 298.683594 40.246094 278.375 28.390625 C 270.207031 23.617188 260.207031 22.765625 248.660156 25.851562 C 231.125 30.546875 210.5625 44.292969 189.191406 65.609375 C 188.253906 66.542969 186.734375 66.542969 185.796875 65.609375 C 164.429688 44.292969 143.867188 30.546875 126.332031 25.851562 C 121.808594 24.640625 117.519531 24.035156 113.480469 24.035156 Z M 261.472656 341.339844 C 258.285156 341.339844 254.839844 340.851562 251.152344 339.867188 C 235.140625 335.570312 216 322.609375 195.796875 302.367188 C 194.894531 301.457031 194.859375 299.996094 195.722656 299.046875 C 206.609375 287.105469 217.328125 273.554688 227.582031 258.769531 C 227.984375 258.183594 228.628906 257.808594 229.339844 257.746094 C 246.707031 256.179688 263.285156 253.632812 278.617188 250.183594 C 279.871094 249.898438 281.148438 250.667969 281.472656 251.933594 C 292.703125 295.792969 289.660156 328.894531 273.527344 338.3125 C 270.070312 340.332031 266.039062 341.339844 261.472656 341.339844 Z M 200.820312 300.582031 C 219.816406 319.304688 237.617188 331.257812 252.394531 335.222656 C 260.082031 337.273438 266.378906 336.917969 271.105469 334.164062 C 284.832031 326.144531 287.246094 295.351562 277.382812 255.378906 C 262.828125 258.546875 247.207031 260.917969 230.894531 262.433594 C 221.203125 276.335938 211.097656 289.152344 200.820312 300.582031 Z M 113.527344 341.339844 C 108.960938 341.339844 104.929688 340.332031 101.472656 338.316406 C 85.339844 328.894531 82.292969 295.792969 93.527344 251.933594 C 93.851562 250.671875 95.128906 249.917969 96.382812 250.183594 C 111.710938 253.632812 128.289062 256.179688 145.660156 257.746094 C 146.367188 257.808594 147.015625 258.183594 147.417969 258.769531 C 157.671875 273.554688 168.390625 287.105469 179.277344 299.046875 C 180.144531 299.996094 180.109375 301.457031 179.203125 302.367188 C 159 322.605469 139.859375 335.570312 123.851562 339.867188 C 120.160156 340.847656 116.710938 341.339844 113.527344 341.339844 Z M 97.617188 255.378906 C 87.753906 295.347656 90.167969 326.144531 103.894531 334.164062 C 108.617188 336.914062 114.914062 337.273438 122.605469 335.222656 C 137.382812 331.257812 155.183594 319.296875 174.179688 300.582031 C 163.910156 289.152344 153.804688 276.335938 144.109375 262.433594 C 127.796875 260.917969 112.171875 258.546875 97.617188 255.378906 Z M 187.5 292.578125 C 186.820312 292.578125 186.171875 292.289062 185.714844 291.785156 C 177.722656 282.941406 169.804688 273.207031 162.179688 262.851562 C 161.628906 262.105469 161.558594 261.105469 161.996094 260.289062 C 162.433594 259.472656 163.25 258.972656 164.230469 259.023438 C 180.125 259.796875 194.875 259.796875 210.769531 259.023438 C 211.730469 258.964844 212.566406 259.472656 213.003906 260.289062 C 213.441406 261.105469 213.375 262.101562 212.820312 262.851562 C 205.195312 273.203125 197.277344 282.9375 189.285156 291.785156 C 188.828125 292.289062 188.179688 292.578125 187.5 292.578125 Z M 169.070312 264.058594 C 175.085938 272.015625 181.269531 279.566406 187.5 286.578125 C 193.734375 279.566406 199.914062 272.019531 205.929688 264.058594 C 193.371094 264.539062 181.628906 264.539062 169.070312 264.058594 Z M 187.5 250 C 176.109375 250 164.628906 249.578125 153.371094 248.734375 C 152.632812 248.683594 151.964844 248.292969 151.554688 247.679688 C 145.125 238.117188 139.121094 228.457031 133.707031 218.976562 C 128.035156 209.035156 122.679688 198.792969 117.792969 188.535156 C 117.480469 187.878906 117.480469 187.121094 117.792969 186.464844 C 122.679688 176.207031 128.035156 165.964844 133.707031 156.023438 C 139.117188 146.554688 145.121094 136.894531 151.558594 127.316406 C 151.964844 126.707031 152.640625 126.316406 153.375 126.257812 C 175.894531 124.578125 199.109375 124.578125 221.625 126.257812 C 222.359375 126.3125 223.027344 126.703125 223.441406 127.316406 C 229.878906 136.894531 235.882812 146.554688 241.292969 156.023438 C 246.964844 165.964844 252.320312 176.207031 257.207031 186.464844 C 257.519531 187.121094 257.519531 187.878906 257.207031 188.535156 C 252.320312 198.792969 246.964844 209.035156 241.292969 218.976562 C 235.878906 228.457031 229.875 238.117188 223.445312 247.679688 C 223.039062 248.289062 222.367188 248.679688 221.628906 248.734375 C 210.371094 249.578125 198.890625 250 187.5 250 Z M 154.894531 244.023438 C 176.429688 245.570312 198.570312 245.570312 220.101562 244.023438 C 226.222656 234.875 231.941406 225.648438 237.117188 216.585938 C 242.539062 207.082031 247.667969 197.304688 252.371094 187.5 C 247.667969 177.695312 242.539062 167.914062 237.117188 158.414062 C 231.945312 149.359375 226.226562 140.132812 220.097656 130.972656 C 198.5625 129.421875 176.421875 129.421875 154.890625 130.972656 C 148.765625 140.132812 143.039062 149.359375 137.871094 158.414062 C 132.445312 167.917969 127.316406 177.695312 122.617188 187.5 C 127.316406 197.304688 132.445312 207.085938 137.871094 216.585938 C 143.054688 225.652344 148.773438 234.875 154.894531 244.023438 Z M 239.847656 246.976562 C 239.027344 246.976562 238.253906 246.558594 237.8125 245.855469 C 237.316406 245.066406 237.320312 244.066406 237.816406 243.285156 C 242.277344 236.257812 246.148438 229.867188 249.644531 223.742188 C 253.316406 217.308594 256.992188 210.480469 260.570312 203.457031 C 260.996094 202.625 261.882812 202.128906 262.796875 202.148438 C 263.730469 202.183594 264.5625 202.75 264.929688 203.617188 C 269.808594 215.148438 274.035156 226.683594 277.496094 237.890625 C 277.695312 238.527344 277.617188 239.226562 277.277344 239.804688 C 276.941406 240.382812 276.375 240.796875 275.722656 240.941406 C 264.421875 243.464844 252.445312 245.492188 240.128906 246.960938 C 240.035156 246.972656 239.9375 246.976562 239.847656 246.976562 Z M 262.480469 210.246094 C 259.625 215.714844 256.722656 221.039062 253.820312 226.121094 C 251.019531 231.035156 247.976562 236.117188 244.589844 241.546875 C 254.0625 240.289062 263.292969 238.695312 272.125 236.804688 C 269.351562 228.082031 266.121094 219.183594 262.480469 210.246094 Z M 135.152344 246.976562 C 135.058594 246.976562 134.960938 246.972656 134.867188 246.960938 C 122.554688 245.484375 110.578125 243.460938 99.277344 240.9375 C 98.625 240.792969 98.0625 240.378906 97.722656 239.796875 C 97.382812 239.214844 97.308594 238.523438 97.503906 237.882812 C 100.964844 226.671875 105.191406 215.144531 110.070312 203.609375 C 110.4375 202.75 111.269531 202.179688 112.203125 202.144531 C 113.078125 202.054688 114.003906 202.621094 114.429688 203.453125 C 118.007812 210.476562 121.683594 217.304688 125.355469 223.734375 C 128.855469 229.859375 132.726562 236.253906 137.183594 243.277344 C 137.683594 244.0625 137.683594 245.0625 137.1875 245.851562 C 136.746094 246.558594 135.976562 246.976562 135.152344 246.976562 Z M 102.878906 236.804688 C 111.710938 238.695312 120.941406 240.289062 130.414062 241.546875 C 127.023438 236.117188 123.984375 231.035156 121.183594 226.121094 C 118.277344 221.039062 115.378906 215.710938 112.523438 210.246094 C 108.878906 219.183594 105.648438 228.082031 102.878906 236.804688 Z M 289.253906 237.503906 C 288.222656 237.503906 287.273438 236.835938 286.957031 235.804688 C 282.269531 220.519531 276.148438 204.605469 268.773438 188.503906 C 268.480469 187.871094 268.480469 187.132812 268.773438 186.5 C 276.148438 170.398438 282.269531 154.480469 286.960938 139.191406 C 287.347656 137.945312 288.664062 137.25 289.898438 137.582031 C 333.496094 149.597656 360.578125 168.722656 360.578125 187.5 C 360.578125 206.277344 333.492188 225.402344 289.890625 237.417969 C 289.679688 237.476562 289.460938 237.503906 289.253906 237.503906 Z M 273.601562 187.5 C 280.503906 202.667969 286.308594 217.679688 290.855469 232.152344 C 330.371094 220.890625 355.769531 203.472656 355.769531 187.5 C 355.769531 171.527344 330.371094 154.109375 290.855469 142.847656 C 286.304688 157.328125 280.5 172.335938 273.601562 187.5 Z M 85.746094 237.503906 C 85.535156 237.503906 85.320312 237.476562 85.105469 237.417969 C 41.507812 225.402344 14.421875 206.277344 14.421875 187.5 C 14.421875 168.722656 41.503906 149.597656 85.105469 137.582031 C 86.347656 137.25 87.660156 137.945312 88.042969 139.191406 C 92.734375 154.480469 98.855469 170.398438 106.230469 186.5 C 106.523438 187.132812 106.523438 187.867188 106.230469 188.503906 C 98.851562 204.609375 92.734375 220.523438 88.046875 235.804688 C 87.730469 236.835938 86.777344 237.503906 85.746094 237.503906 Z M 84.144531 142.847656 C 44.628906 154.109375 19.230469 171.527344 19.230469 187.5 C 19.230469 203.472656 44.628906 220.890625 84.144531 232.152344 C 88.695312 217.679688 94.496094 202.671875 101.398438 187.5 C 94.5 172.335938 88.695312 157.328125 84.144531 142.847656 Z M 262.714844 172.871094 C 261.8125 172.871094 260.984375 172.367188 260.570312 171.558594 C 256.933594 164.402344 253.355469 157.765625 249.648438 151.269531 C 246.160156 145.152344 242.289062 138.757812 237.816406 131.722656 C 237.316406 130.9375 237.316406 129.9375 237.8125 129.148438 C 238.308594 128.367188 239.191406 127.933594 240.132812 128.042969 C 252.457031 129.519531 264.433594 131.542969 275.730469 134.0625 C 276.382812 134.207031 276.945312 134.621094 277.289062 135.203125 C 277.625 135.785156 277.703125 136.476562 277.503906 137.117188 C 274.039062 148.347656 269.808594 159.878906 264.9375 171.398438 C 264.570312 172.257812 263.742188 172.832031 262.808594 172.867188 C 262.769531 172.871094 262.742188 172.871094 262.714844 172.871094 Z M 253.816406 148.882812 C 256.753906 154.027344 259.609375 159.257812 262.476562 164.757812 C 266.109375 155.835938 269.339844 146.929688 272.117188 138.195312 C 263.285156 136.304688 254.054688 134.710938 244.578125 133.453125 C 247.980469 138.894531 251.019531 143.976562 253.816406 148.882812 Z M 112.285156 172.871094 C 112.253906 172.871094 112.226562 172.871094 112.195312 172.871094 C 111.265625 172.835938 110.433594 172.269531 110.066406 171.402344 C 105.195312 159.882812 100.964844 148.351562 97.5 137.121094 C 97.296875 136.480469 97.378906 135.785156 97.714844 135.207031 C 98.054688 134.625 98.621094 134.210938 99.273438 134.066406 C 110.570312 131.542969 122.546875 129.519531 134.871094 128.046875 C 135.808594 127.953125 136.695312 128.371094 137.191406 129.152344 C 137.6875 129.941406 137.683594 130.941406 137.1875 131.726562 C 132.714844 138.765625 128.847656 145.160156 125.355469 151.273438 C 121.648438 157.769531 118.070312 164.402344 114.433594 171.5625 C 114.015625 172.367188 113.1875 172.871094 112.285156 172.871094 Z M 102.878906 138.195312 C 105.652344 146.929688 108.890625 155.835938 112.519531 164.757812 C 115.390625 159.257812 118.242188 154.027344 121.179688 148.882812 C 123.980469 143.976562 127.019531 138.894531 130.414062 133.453125 C 120.941406 134.710938 111.710938 136.304688 102.878906 138.195312 Z M 279.148438 124.875 C 278.972656 124.875 278.796875 124.855469 278.621094 124.816406 C 263.292969 121.367188 246.710938 118.820312 229.339844 117.253906 C 228.632812 117.191406 227.984375 116.816406 227.582031 116.230469 C 217.328125 101.441406 206.605469 87.894531 195.722656 75.957031 C 194.855469 75.007812 194.890625 73.546875 195.796875 72.640625 C 215.996094 52.398438 235.140625 39.429688 251.152344 35.140625 C 260.140625 32.734375 267.683594 33.277344 273.527344 36.6875 C 289.660156 46.109375 292.707031 79.210938 281.476562 123.070312 C 281.195312 124.148438 280.226562 124.875 279.148438 124.875 Z M 230.890625 112.566406 C 247.203125 114.082031 262.828125 116.453125 277.382812 119.621094 C 287.246094 79.652344 284.832031 48.855469 271.101562 40.835938 C 266.394531 38.089844 260.085938 37.730469 252.394531 39.777344 C 237.617188 43.742188 219.8125 55.703125 200.816406 74.421875 C 211.089844 85.839844 221.195312 98.660156 230.890625 112.566406 Z M 95.851562 124.875 C 94.773438 124.875 93.804688 124.148438 93.523438 123.066406 C 82.292969 79.207031 85.335938 46.109375 101.464844 36.6875 C 101.464844 36.6875 101.464844 36.6875 101.472656 36.6875 C 107.316406 33.277344 114.871094 32.734375 123.839844 35.140625 C 139.859375 39.433594 159 52.398438 179.195312 72.640625 C 180.101562 73.546875 180.132812 75.007812 179.273438 75.957031 C 168.390625 87.894531 157.667969 101.445312 147.414062 116.230469 C 147.007812 116.816406 146.367188 117.191406 145.652344 117.253906 C 128.289062 118.820312 111.707031 121.367188 96.375 124.816406 C 96.203125 124.855469 96.027344 124.875 95.851562 124.875 Z M 103.894531 40.835938 C 90.167969 48.855469 87.753906 79.652344 97.609375 119.621094 C 112.167969 116.453125 127.792969 114.082031 144.105469 112.566406 C 153.804688 98.660156 163.902344 85.839844 174.171875 74.417969 C 155.179688 55.695312 137.378906 43.734375 122.597656 39.773438 C 114.9375 37.730469 108.621094 38.085938 103.894531 40.835938 Z M 210.882812 115.972656 C 210.847656 115.972656 210.808594 115.972656 210.769531 115.972656 C 194.875 115.195312 180.128906 115.195312 164.234375 115.972656 C 163.246094 115.996094 162.4375 115.519531 162 114.707031 C 161.5625 113.890625 161.628906 112.894531 162.183594 112.144531 C 169.8125 101.785156 177.730469 92.046875 185.722656 83.210938 C 186.632812 82.207031 188.375 82.207031 189.289062 83.210938 C 197.273438 92.042969 205.191406 101.777344 212.828125 112.144531 C 213.375 112.890625 213.445312 113.890625 213.007812 114.707031 C 212.582031 115.484375 211.765625 115.972656 210.882812 115.972656 Z M 187.5 110.578125 C 193.472656 110.578125 199.648438 110.703125 205.929688 110.945312 C 199.910156 102.980469 193.726562 95.429688 187.5 88.429688 C 181.273438 95.433594 175.089844 102.980469 169.070312 110.945312 C 175.351562 110.703125 181.527344 110.578125 187.5 110.578125 Z M 187.5 110.578125 " fill-opacity="1" fill-rule="nonzero"/></svg>